<?xml version="1.0" encoding="UTF-8"?><svg xmlns="http://www.w3.org/2000/svg" xmlns:xlink="http://www.w3.org/1999/xlink" height="192.5" preserveAspectRatio="xMidYMid meet" version="1.0" viewBox="100.7 118.8 225.8 192.5" width="225.8" zoomAndPan="magnify"><g><g id="change1_1"><path d="M 222.023438 118.78125 L 120.742188 118.78125 C 109.6875 118.78125 100.722656 127.742188 100.722656 138.800781 L 100.722656 206.320312 C 100.722656 217.375 109.6875 226.339844 120.742188 226.339844 L 123.097656 226.339844 L 123.097656 248.714844 L 145.476562 226.339844 L 222.023438 226.339844 C 233.078125 226.339844 242.042969 217.375 242.042969 206.320312 L 242.042969 138.800781 C 242.042969 127.742188 233.078125 118.78125 222.023438 118.78125" fill="#231f20"/></g><g id="change2_1"><path d="M 158.023438 176.484375 C 158.023438 181.011719 154.355469 184.679688 149.828125 184.679688 C 145.300781 184.679688 141.632812 181.011719 141.632812 176.484375 C 141.632812 171.960938 145.300781 168.289062 149.828125 168.289062 C 154.355469 168.289062 158.023438 171.960938 158.023438 176.484375" fill="#fff"/></g><g id="change2_2"><path d="M 179.578125 176.484375 C 179.578125 181.011719 175.910156 184.679688 171.382812 184.679688 C 166.855469 184.679688 163.1875 181.011719 163.1875 176.484375 C 163.1875 171.960938 166.855469 168.289062 171.382812 168.289062 C 175.910156 168.289062 179.578125 171.960938 179.578125 176.484375" fill="#fff"/></g><g id="change2_3"><path d="M 201.132812 176.484375 C 201.132812 181.011719 197.464844 184.679688 192.9375 184.679688 C 188.410156 184.679688 184.742188 181.011719 184.742188 176.484375 C 184.742188 171.960938 188.410156 168.289062 192.9375 168.289062 C 197.464844 168.289062 201.132812 171.960938 201.132812 176.484375" fill="#fff"/></g><g id="change1_2"><path d="M 203.179688 176.484375 L 304.457031 176.484375 C 315.515625 176.484375 324.476562 185.449219 324.476562 196.503906 L 324.476562 264.023438 C 324.476562 275.078125 315.515625 284.042969 304.457031 284.042969 L 302.101562 284.042969 L 302.101562 306.421875 L 279.722656 284.042969 L 203.179688 284.042969 C 192.121094 284.042969 183.160156 275.078125 183.160156 264.023438 L 183.160156 196.503906 C 183.160156 185.449219 192.121094 176.484375 203.179688 176.484375" fill="#231f20"/></g><path d="M 2031.796875 2487.15625 L 3044.570312 2487.15625 C 3155.15625 2487.15625 3244.765625 2397.507812 3244.765625 2286.960938 L 3244.765625 1611.765625 C 3244.765625 1501.21875 3155.15625 1411.570312 3044.570312 1411.570312 L 3021.015625 1411.570312 L 3021.015625 1187.78125 L 2797.226562 1411.570312 L 2031.796875 1411.570312 C 1921.210938 1411.570312 1831.601562 1501.21875 1831.601562 1611.765625 L 1831.601562 2286.960938 C 1831.601562 2397.507812 1921.210938 2487.15625 2031.796875 2487.15625 Z M 2031.796875 2487.15625" fill="none" stroke="#fff" stroke-miterlimit="10" stroke-width="40" transform="matrix(.1 0 0 -.1 0 425.2)"/><g id="change2_4"><path d="M 240.457031 232.324219 C 240.457031 236.851562 236.789062 240.519531 232.261719 240.519531 C 227.738281 240.519531 224.066406 236.851562 224.066406 232.324219 C 224.066406 227.800781 227.738281 224.128906 232.261719 224.128906 C 236.789062 224.128906 240.457031 227.800781 240.457031 232.324219" fill="#fff"/></g><g id="change2_5"><path d="M 262.011719 232.324219 C 262.011719 236.851562 258.34375 240.519531 253.816406 240.519531 C 249.292969 240.519531 245.621094 236.851562 245.621094 232.324219 C 245.621094 227.800781 249.292969 224.128906 253.816406 224.128906 C 258.34375 224.128906 262.011719 227.800781 262.011719 232.324219" fill="#fff"/></g><g id="change2_6"><path d="M 283.566406 232.324219 C 283.566406 236.851562 279.898438 240.519531 275.371094 240.519531 C 270.847656 240.519531 267.175781 236.851562 267.175781 232.324219 C 267.175781 227.800781 270.847656 224.128906 275.371094 224.128906 C 279.898438 224.128906 283.566406 227.800781 283.566406 232.324219" fill="#fff"/></g></g></svg>