<?xml version="1.0" encoding="utf-8"?>
<svg xmlns="http://www.w3.org/2000/svg" xmlns:xlink="http://www.w3.org/1999/xlink" height="196.0" preserveAspectRatio="xMidYMid meet" version="1.0" viewBox="0.0 0.0 159.6 196.0" width="159.6" zoomAndPan="magnify">
	<g id="change1_1">
		<path d="M29.8,18.7L13.2,0H0v42.8h14.3V24.3l16.6,18.5H44V0H29.8V18.7z M31.5,1.8h10.7V41H31.6L12.5,19.7V41H1.8V1.8h10.6l19.1,21.6 V1.8z M66.8,26.7h19.8V15.5H66.8v-3.9h23.1V0H51.4v42.8h38.9V31.1H66.8V26.7z M88.6,32.9V41H53.2V1.8h35v8.1H65.1v7.4h19.8v7.7H65.1 v8H88.6z M123,42.8l4.9-22.3l4.9,22.3h16.4L159.6,0h-15.5l-4,20.4L135.6,0h-14.9l-4.2,20.4L112.2,0h-16l10.4,42.8H123z M110.8,1.8 l4.9,23.2h1.7l4.8-23.2h12l5.1,23.2h1.7l4.6-23.2h11.7L147.8,41h-13.6l-5.5-25H127l-5.5,25h-13.6L98.4,1.8H110.8z M29.8,71 L13.2,52.2H0V95h14.3V76.5L30.9,95H44V52.2H29.8V71z M31.5,54h10.7v39.2H31.6L12.5,71.9v21.3H1.8V54h10.6l19.1,21.6V54z M66.8,78.9 h19.8V67.7H66.8v-3.9h23.1V52.2H51.4V95h38.9V83.4H66.8V78.9z M88.6,85.1v8.1H53.2V54h35v8.1H65.1v7.4h19.8v7.7H65.1v8H88.6z M140.1,72.7l-4.5-20.4h-14.9l-4.2,20.4l-4.3-20.4h-16L106.5,95H123l4.9-22.3l4.9,22.3h16.4l10.4-42.8h-15.5L140.1,72.7z M157.3,54 l-9.5,39.2h-13.6l-5.5-25H127l-5.5,25h-13.6L98.4,54h12.4l4.9,23.2h1.7l4.8-23.2h12l5.1,23.2h1.7l4.6-23.2H157.3z M29.8,123.2 l-16.6-18.7H0v42.8h14.3v-18.5l16.6,18.5H44v-42.8H29.8V123.2z M31.5,106.2h10.7v39.2H31.6l-19.1-21.3v21.3H1.8v-39.2h10.6 l19.1,21.6V106.2z M66.8,131.1h19.8v-11.2H66.8v-3.9h23.1v-11.6H51.4v42.8h38.9v-11.6H66.8V131.1z M88.6,137.4v8.1H53.2v-39.2h35 v8.1H65.1v7.4h19.8v7.7H65.1v8H88.6z M140.1,124.9l-4.5-20.4h-14.9l-4.2,20.4l-4.3-20.4h-16l10.4,42.8H123l4.9-22.3l4.9,22.3h16.4 l10.4-42.8h-15.5L140.1,124.9z M157.3,106.2l-9.5,39.2h-13.6l-5.5-25H127l-5.5,25h-13.6l-9.5-39.2h12.4l4.9,23.2h1.7l4.8-23.2h12 l5.1,23.2h1.7l4.6-23.2H157.3z M30.6,155h12.5v41H31.3l-17.9-19.9V196H0.9v-41h11.9l17.9,20.2V155z M66,186.2h23.5v9.8H52.3v-41 h36.7v9.8H66v5.6h19.8v9.4H66V186.2z M144.8,155h13.6l-10,41h-15l-5.5-25h-0.2l-5.5,25h-15l-9.9-41h14.2l4.9,23.2h0.2l4.8-23.2h13.4 l5.1,23.2h0.3L144.8,155z" fill="rgb(255,0,0)"/>
	</g>
</svg>